<svg xmlns="http://www.w3.org/2000/svg" id="svg1" width="1024" height="1024" viewBox="0 0 1024 1024"><defs id="defs1"><linearGradient id="swatch3"><stop id="stop3" offset="0" style="stop-color:#000;stop-opacity:1"/></linearGradient></defs><g id="g1"><path id="path3" d="M507.558 93.006c-11.576-.543-21.858 4.163-23.424 4.85-26.55 11.664-24.377 38.36-21.05 38.38l86.522.546c3.623.023 5.933-22.128-16.567-36.58-10.173-6.535-21.377-6.996-25.48-7.202m43.006 100.262.218-44.743-88.95-.235-.288 43.768c35.259-1.438 51.465-1.682 89.02 1.21m-43 65 11.908-50.399s-9.895-2.39-14.924-3.12c-9.924-1.441-19.956-2.635-29.983-2.47-16.643.273-27.892.269-49.605 5.731-19.623 4.936-32.198 10.936-47.145 19.456-17.99 10.253-33.145 23.972-33.145 23.972l8.136 8.785 16.637 17.645 9.856 9.831s12.475-9.65 18.591-13.192c9.523-5.512 31.071-18.148 66.328-19.511 26.507-1.025 43.18 4.002 43.18 4.002m20.513-49.198-12.904 51.452c19.076 6.546 35.682 16.29 51.23 29.407l37.832-38.845-3.167-2.962s-5.323-4.624-8.153-6.72c-7.803-5.783-15.741-11.478-24.276-16.114-10.39-5.643-25.231-12.601-33.916-14.61m20.89-.552s18.968 8.26 32.176 16.818c9.748 6.315 23.185 17.363 23.185 17.363l8.293.08c15.406.19 23.85.82 35.238 1.486-2.163-1.696-2.944-3.782-15.51-10.381-7.385-3.88-52.894-22.725-83.35-25.396m68.467 46.664s6.592 7.212 10.416 12.018 10.79 13.892 14.605 19.323c4.282 6.096 9.49 15.284 9.49 15.284l25.345.95c-4.29-8.722-15.96-25.881-23.02-33.844-4.35-4.903-7.477-8.823-12.397-13.336M300.338 342.24l15.226 5.345 15.805 4.998s5.966-12.89 10.218-19.73c5.196-8.355 11.802-17.952 18.365-25.568 3.98-4.62 13.674-13.2 13.674-13.2l-23.987-24.734-11.274-11.58s-11.903 12.55-17.399 19.316c-7.525 9.263-14.798 20.305-20.593 30.738-6.681 12.029-13.653 29.644-13.653 29.644m323.075-79.499-37.702 37.524c15.026 16.656 28.949 34.488 36.473 57.769l50.088-16.382c-5.554-15.995-13.612-39.637-44.995-75.106m45.97-3.2s4.257 4.71 6.694 7.304 9.704 11.751 12.39 15.33c9.069 12.088 16.278 24.967 16.278 24.967l4.017.332 4.1.35 5.865.347 6.704.485 10.33.734 8.113.544-9.13-9.449-9.367-8.886-10.057-9.128-10.536-9.083-5.803-4.633-5.328-4.136-5.552-4.33m-224.125 32.502s8.364 26.936-3.455 42.509c-12.875 16.964-30.4 30.415-36.695 46.955-7.96 20.913-2.872 41.933 4.022 51.92 12.315 17.839 31.423 25.43 41.782 25.679 0 0-15.068-25.166-15.768-36.875-1.867-31.178 26.076-54.839 26.076-54.839s-1.442 17.53 3.39 32.339c6.777 20.767 16.228 22.696 18.518 37.25 1.6 10.168-2.526 22.5-2.526 22.5s18.935-3.385 32.373-15.75c23.58-21.697 19.34-53.802 13.764-67.103-3.962-9.45-11.784-18.208-11.784-18.208s-1.317 17.317-10.713 27.4c-6.495 6.97-16.633 12.244-16.64 11.66-.163-13.704 4.845-19.706 4.813-36.25-.111-57.15-47.188-69.218-47.188-69.218m210.08 24.182s6.95 18.678 10.769 34.072c3.03 12.21 5.37 25.572 5.37 25.572l52.686 1.731c-.846-15.592-5.31-26.405-8.304-36.182-2.145-7.005-8.95-22.243-8.95-22.243m11.206 1.628s6.924 16.57 11.498 32.61c3.726 13.066 5.226 24.359 5.226 24.359l27.168 1.798s-3.47-14.376-11.675-30.687c-4.705-11.437-16.363-27.246-16.363-27.246m-131.34 39.234c5.64 20.99 9.267 37.373 9.872 63.248l50.925.265c.542-13.323-.328-26.584-2.179-39.783-1.988-13.497-6.03-28.525-9.385-38.86m-377.23.77s-5.831 16.97-8.234 27.474c-1.883 8.232-3.57 20.443-4.268 28.859-.603 7.258-.664 21.612-.664 21.612l11.204-.005 22.94.023 13.38.048c-.556-13.178 3.064-37.04 4.59-42.386l5.83-20.42-16.782-6.218zm397.902 43.019 1.621 24.07c.505 11.95.747 22.813 1.013 34.855l31.923-.35s.425-10.906-.766-32.048c-.996-17.7-3.09-25.899-3.096-25.835l-16.018-.452m24.905 1.01s1.44 9.36 2.574 25.29c1.037 14.554 1.27 32.008 1.27 32.008l12.685.396 28.98-.073 15.418-.321s-.122-15.485-1.213-25.657c-1.084-10.104-5.477-30.064-5.477-30.064l-30.721-1.12-13.705-.193m-460.492 43.38-.185 26.085.013 20.993.074 15.394c11.445-.123 22.77-.029 34.215-.133l13.602-.17-.522-26.084-.017-20.993-.073-14.79c-11.629-.172-23.259-.152-34.888-.18m338.95-.302-.108 62.154 50.929.268s.204-21.484.218-31.96c.013-10.126-.138-29.845-.138-29.845m-241.874 37.148s-23.938-12.171-28.246-13.92c-2.322-.942-9.694-3.133-18.965 9.385-5.623 7.592-2.68 21.323-.844 23.11 2.458 2.395 26.055 13.887 26.055 13.887l13.06 5.527 13.94-7.68 27.032-14.456m90.24-29.431s-6.653-2.035-13.628 1.446c-10.347 5.165-46.332 23.397-46.332 23.397l-68.062 35.709s-29.768 14.283-37.629 20.118c-5.384 3.997.046 15.304 3.467 20.11 2.803 3.937 9.915 7.81 15.738 8.252 6.336.48 18.174-7.428 18.174-7.428l24-12.656 69-35.524s39.153-18.495 45.275-23.213c3.681-2.838 6.522-20.569-8.025-29.4m129.183 1.448.048 59.186 17.52-.153 25.995-.495 16.176-.27s.247-21.862.184-32.23c-.057-9.119-.544-26.232-.544-26.232m9.934.344.129 23.731.094 21.963.094 11.923 15.902-.113 12.386-.165s.348-15.05.336-22.608c-.012-7.651.067-15.343.032-23.016-.017-3.813-.214-11.813-.214-11.813m-511.797 46.706.001 69.06-.045 19.073 33.336-.072h340l27.846-.534.44-87.934-50.658-.184.008 16.655-.155 35.364.227 14.536-1.338 1.051-3.637.045h-242.73l-38.998-.006-15.264-.02-1.079-1.767-.155-16.207-.135-32.247.1-16.956-24.596.017m202.936 38.83 18.564 8.932s21.209 10.655 25.685 11.174c6.614.766 13.23-4.285 17.208-9.625 2.99-4.014 4.518-9.736 4.18-14.73-.406-6.029-13.184-10.55-20.893-14.176-5.447-2.563-16.439-7.481-16.439-7.481l-14.85 7.715-24.15 12.841m239.427-9.901-.622 56.813 57.16-8.205c.634-14.024.766-25.758.766-37.978l-.325-12.841m-98.669 3.848-.639 60.96 32.462-4.62.57-57.407-17.863.63m-140.462 8.63s1.352 5.83-3.517 13.02c-3.86 5.701-7.96 7.067-12.772 8.605-2.511.803-4.064-.782-3.113-5.927 1.318-6.85 9.926-21.998 18.758-16.928m-163.962.458s2.635-.839 6.3.19c2.841.798 6.884 4.748 8.404 6.494 2.748 3.157 8.427 13.132 3.24 16.332-2.385 1.47-9.825.354-15.295-7.132-2.038-2.79-7.796-12.404-3.961-15.2m364.31 90.647s3.88 2.053 8.399-2.101c3.865-3.554 9.575 2.953 13.662 1.762 3.63-1.057 7.614-4.484 10.126-8.254 1.993-2.993-6.227-3.035-8.969-1.532-2.865 1.571-3.037 2.886-6.937 2.813-3.297-.062-5.224-3.838-8.657-3.563-4.016.323-5.78 6.063-5.78 6.063m-320.7 11.625s-18.117-1.771-25.81 14.502c-3.7 7.83-3.688 30.768-3.688 30.768s-.284 29.943.944 40.533c.924 7.967 6.718 13.855 8.371 15.248 3.313 2.792 8.77 7.348 19.704 7.274 8.399-.057 16.372-2.092 21.05-7.382 7.579-8.573 7.502-18.378 7.789-27.033 0 0 .534-39.446-.706-50.813-.708-6.489-3.63-12.675-8.39-16.505-7.993-6.431-19.261-6.593-19.261-6.593m-276.511 17.003v89h18v-89h18v-15h-53v15m68-15v67c0 15.999-.608 26.228 9.05 33.288 9.087 6.642 25.489 8.904 36.308.883 8.656-6.416 9.627-15.993 9.638-26.767l-.027-74.383-16.99-.032.03 73.882c.004 13.665-4.01 16.57-11.445 16.241-8.16-.361-9.334-7-9.36-16.183l-.167-59.515-.037-14.414m68 103h19v-88h17v-15h-53v15h17m64 88h18v-88h17v-15h-52v15h17m191 69 4 20h17l-20.342-104h-23.658l-19 104h17l4-20m134 5h-25v-89h-18v104h43m15.047.404 46.953-.404v-15h-26v-30h17v-17h-17v-27h24v-15h-44s-.953 69.6-.953 104.404m78 0-.047-62.404 24 62h17v-104h-16v60.614l-23-60.614h-18v104h16m57 0h17l3-20h22l3 20h17L856.51 639.773l-22.996.085m-396.011 14.404s3.7-.079 6.73 3.323c2.579 2.893 2.161 6.901 2.194 9.727.188 16.455.05 32.878.073 49.345.013 10.103-4.694 13.825-10.418 13.662-5.636-.16-9.482-5.001-9.475-14.011l.038-45.391c.006-7.384.222-9.995 3.324-14.098 2.31-3.055 7.538-2.557 7.538-2.557m103.007 11.596 8 43h-16zm304.5 1 8.5 42h-17zM273.91 813.299c1.948 1.813 6.526-5.01 14.11-4.49-4.566 6.886-9.3 13.418-17.387 16.924-3.96 1.717-8.73-1.008-9.535-3.922-.702-2.54-.11-5.142-3.78-5.317-5.379-.256-3.427 8.682-2.371 10.263 4.433 6.64 13.169 5.677 16.387 4.874 3.403-.85 13.539-3.826 24.874-22.135 0 0 6.535.079 11.228.891-5.556 15.284-5.025 22.48 7.525 20.531 2.078-.361 5.123-1.739 6.936-4.133 2.257-2.38 11.714-16.94 18.106-27.258l2.547 1.459c5.054 3.624-8.896 16.461-5.256 25.988 5.108 13.372 20.021-.98 21.766-4.477-.448 3.855 3.255 10.834 12.517 8.598 14.894-4.62 10.458-12.094 18.228-2.696 4.076 4.931 13.26 5.542 19.502 1.645 10.016-6.256 16.832-23 12.945-18.765-15.293 16.66-25.97 19.43-29.851 6.364 17.69-.951 23.382-11.161 23.947-15.052 0 0 1.433-7.3-3.86-9.551-11.583-4.929-23.317 8.917-26.47 15.176-.802 1.403-6.415 12.65-9.966 15.022-11.872 7.122-8.083-5.471-5.554-11.978l5.843-14.396 9.954-.027.799-4.215-9.01-.02 5.057-12.482-7.642.705c-.106.01-4.983 11.727-4.983 11.727l-7.856.06-1.442 4.181 7.749.072-5.83 13.902c-2.242 4.454-12.796 17.143-16.627 14.365-4.816-3.492 9.69-20.15 6.979-24.733-3.651-6.172-10.464-3.127-10.183-6.977.421-5.777-.44-7.775-2.775-6.847-3.668 1.457-6.702 7.1-4.776 9.748 1.68 2.31-18.787 30.613-21.947 28.043-2.212-1.503 1.1-11.27 2.159-15.115l6.119-19.066c1.3-4.056 6.415-14.586 4.109-17.414-3.288-4.033-10.08-1.832-15.357 4.217-5.994 6.833-12.87 18.639-18.864 25.473-8.134-1.3-22.944 6.904-18.07 10.834m253.055-19.878-6.99.034-2.066 4.386c-4.41-7.947-13.282-5.862-18.31-3.158-5.5 2.957-10.38 8.063-14.038 17.677-1.471 3.864-.78 4.375-3.331 7.693-2.915 3.105-7.856 6.325-11.504 4.916-4.973-1.92 5.2-22.37 7.135-27.822l8.29-.01 1.52-4.322-8.237-.022c1.334-4.333 3.33-8.888 4.663-13.221l-7.651 1.193-4.988 12-8.22-.01-.671 4.503 7.9-.066s-1.234 4.49-7.526 14.703c-5.835 8.43-12.604 16.202-14.257 12.914-2.864-5.697 9.885-31.005 9.885-31.005l-8.56-.076s-15.807 25.504-10.712 34.836c2.887 5.29 11.915 5.76 21.49-6.145 4.402 17.914 20.266 6.525 23.692 1.442 0 0 4.712 13.673 16.588 4.647 11.445-8.697 4.457-2.34 11.312 2.125 2.511 1.636 9.245 3.322 16.537-7.895 2.592-3.987-.187 21.78 27.071-1.275-.957 15.17 12.237 11.341 21.754 1.426 7.083 17.388 20.862 3.842 22.535.73 2.11 14.707 17.666 5.41 20.916-.923l-1.008 8.163 7.168-.028c4.055-16.06 8.882-21.902 12.499-25.623 2.623-2.699 8.71-8.621 11.83-6.584 2.156 1.408-12.736 24.18-5.877 30.775 7.662 6.162 15.277-2.742 20.675-7.803 1.109 3.972 6.785 10.856 14.287 9.53 11.718-2.072 17.447-13.938 19.136-17.87 7.638.563 11.606-2.897 12.191-7.885.455-3.875-5.175 4.808-11.216 2.954 1.312-5.093.538-12.895-7.851-15.802-8.681-3.008-16.942 5.804-20.149 10.506-4.16 6.1-8.512 17.253-17.685 22.355-7.145 3.974 2.884-15.881 4.408-23.914.888-4.685-.843-8.682-6.176-8.97-7.585-.41-14.116 9.115-15.716 9.828-2.384 1.618 1.204-8.832 1.204-8.832l-6.563.053c-3.627 9.303-4.737 13.666-9.132 20.718-1.152 1.849-10.13 12.985-12.957 11.117-2.675-1.767 2.183-14.994 4.371-21.09 1.312-3.678 3.124-7.029 4.436-10.707l-6.83.035-2.92 4.762c-.328-1.205-1.995-3.916-4.51-4.882-7.161-3.044-18.448-1.203-27.307 22.67-2.316 5.539-10.189 8.638-10.189 8.638-8.44 3.555 7.946-31.133 7.946-31.133l-7.496-.065s-5.606 14.473-11.346 21.294c-4.085 4.855-11.458 13.132-16.57 9.372-4.024-2.96-1.605-9.862 3.161-14.652 6.84-6.876 9.91-10.03 14.78-18.959 0 0 5.584-9.981 4.06-16.465-.296-1.257-5.988-9.38-18.915 8.183-7.204 9.788-13.638 33.699-13.638 33.699-3.89 4.666-7.65 9.733-10.257 9.508-5.117-.44 1.54-16.31 1.54-16.31m17.607-2.176s1.055-5.72 5.75-14.298c17.245-31.515 11.523-8.049 9.902-4.764-4.37 8.852-13.102 17.858-15.932 20.914m-218.866-31.7c.722.524-.382 4.178-2.33 9.139-3.334 8.489-6.86 17.22-6.86 17.22s-5.026.177-10.28-.358c2.864-3.825 15.579-27.307 19.47-26.004m135.988 3.061c6.246-2.911 9.356 5.962 4.139 8.425-6.671 3.149-9.505-6.033-4.137-8.421m117.04.342c-5.207 3.885-.617 10.96 4.954 8.023 5.778-3.046 1.097-11.826-4.93-8.038m-179.17 32.7c-.47-1.798 1.492-6.291 6.856-13.039 2.047-2.115 3.122-3.17 6.473-3.607 6.852-.386 7.56 13.325-13.342 16.607zm113.11-15.682s6.457-3.17 7.402 3.897c.85 6.345-8.677 20.916-14.73 22.997-2.954 1.015-7.383-1.85-6.1-8.374 1.547-7.876 8.702-16.533 13.445-18.527m96.202-.05c11.122 6.38-6.355 29.521-12.57 27.372-3.911-1.353-3.515-6.916-2-13.543 1.719-7.515 8.52-16.355 14.568-13.834m87.773-.394s2.34.226 3.126 2.403c1.445 4.006-2.1 7.305.356 9.553 3.542 3.242-7.179 16.688-11.778 16.783-3.608.074-7.722-3.409-7.105-8.443.925-7.54 5.38-16.973 11.168-19.838 1.677-.83 4.233-.458 4.233-.458m21.113 22.979s-2.884 1.493-2.98 4.844c-.135 4.732 2.684 2.128 2.366 3.195-.73 2.457-3.006 4.537-3.578 5.547-.906 1.6 3.532.265 4.836-.711 2.29-1.713 3.093-3.488 3.602-5.023 1.392-4.2 3.274-11.972-4.248-7.853m-323.565 37.071s1.368-1.12 6.358-2.68c2.169-.677 4.751-2.18 5.658-5.414.127-.454-3.135.375-3.135.375-5.41 1.232-7.934 4.542-8.88 7.72m317.431-7.419c6.634-2.318 9.958 7.58 2.632 9.292-7.174 1.164-7.568-7.812-2.632-9.292m-38.432 17.418 7.603.01c-9.22 23.404-20.353 27.944-22.562 26.299-4.422-4.133 13.373-24.033 4.48-30.315-5.997-4.237-14.065 2.237-20.233 7.48l2.49-6.932-7.549-.01c-7.73 24.37-32.134 40.149-37.074 22.66 3.994-2.408 29.884-3.599 23.96-20.314-1.805-5.092-10.952-4.895-15.994-2.614-11.064 5.004-12.651 11.775-16.469 19.195-3.988 7.753-13.652 11.54-13.652 11.54 3.667-10.333 7.386-20.796 11.053-31.13h-6.633l-2.423 4.686c-4.869-8.887-12.718-5.184-16.329-2.943-3.357 2.084-8.14 6.663-13.192 17.64-1.59 3.454-12.161 13.024-15.22 10.767-3.066-2.262 5.866-18.93 6.606-21.464 1.815-6.215-6.145-6.202-10.398-7.918 2.684-3.903.832-10.226-2.82-7.15-9.646 8.122-3.07 11.046-3.07 11.046-6.4 7.99-16.83 28.438-22.574 25.47-1.18-4.53 9.973-30.088 9.973-30.088l-8.02-.01-1.9 4.678c-.984 2.424-.567-5.415-8.361-5.707-11.937-.446-19.687 15.48-20.234 16.802-2.975 7.178-3.768 17.299 2.523 19.939 7.084 2.972 15.75-2.79 17.287-6.296.742 4.29 3.363 7.665 7.606 7.194 10.743-2.854 17.069-14.15 27.011-30.445 0 0 3.231.069 4.097 1.01 3.27 5.13-12.415 17.902-5 27.014 5.017 6.166 13.702.47 16.862-2.317 4.362-3.846 4.345-4.544 4.796-4.81.147 5.126 4.66 8.901 7.801 9.184 5.633.507 7.607-1.056 10.56-2.148-7.628 5.733-21.58 8.746-24.563 19.231-3.58 12.583 8.642 12.807 13.99 10.822 10.653-3.956 13.248-17.47 17.792-24.625 5.711-4.776 11.069-7.652 16.78-12.428 1.191 5.455 7.155 9.408 12.323 9.56 6.165.181 12.595-1.052 21.677-8.56-.666 2.667-.935 3.786-2 8l7.965-.021c7.751-26.413 21.985-31.69 24.035-30.98 3.624.577-12.073 21.28-5.936 28.884 7.23 7.35 16.083-1.242 20.785-5.646 5.09 17.924 19.198 4.166 24.402-.79.737 6.168 3.398 9.467 7.062 9.677 4.02.231 10.706-3.967 13.885-6.926l-1.462 5.945 6.99.032c6.129-21.265 19.868-35.764 23.82-31.31 3.73 4.203-13.358 23.83-5.363 30.206 5.907 4.712 15.021-1.325 20.88-8.824 0 0-.431 12.222 12.873 10.387 12.41-1.71 17.339-12.327 19.786-17.424 3.02 1.06 10.063-2.178 10.676-7.506.374-3.245-4.972 3.852-9.837 2.634.048-11.815-4.706-15.586-12.64-15.498-17.003.188-21.173 26.264-32.92 31.47-8.912 3.948 10.145-23.738 4.796-28.89-8.057-7.76-22.998 7.336-22.363 5.059l1.66-5.95-7.328.015s-4.993 15.016-9.055 21.428c-2.7 4.264-4.222 6.88-9.46 9.275-8.47 3.874 6.7-30.674 6.7-30.674l-7.996.043c-5.468 12.684-16.33 32.635-24.86 30.185-4.415-1.268 1.847-15.031 6.507-26.854l8.296.018 1.227-4.374h-8.156l5.013-13.24-7.468 1.186-4.554 12.038-7.09.02zm-422.722-5.263s-7.555-.062-13.871 5.522c-6.108 5.399-10.41 17.18-10.41 17.18-4.692 4.076-13.53 12.77-19.267 8.68-5.842-4.163-4.529-12.321 1.954-21.431 3.007-4.227 13.408-9.849 8.175-.138-1.566 2.908-.845 4.87-.068 5.323 2.173 1.267 8.12-4.162 7.763-10.041-.237-3.918-6.676-5.619-10.55-5.109-7.342.967-14.607 9.718-16.808 14.527-5.053 11.037-5.397 19.91 4.648 22.842 7.49 2.187 16.34-1.081 24.687-9.356 2.423 13.4 16.75 11.771 21.973 7.15 2.987-2.644 9.117-8.738 11.649-13.963.911-1.883 5.99 3.33 15.847-13.672 0 0 5.287-1.14 3.663 3.73-3.91 11.73-10.256 19.794-3.858 26.084 6.579 4.246 14.879-3.853 19.483-7.896.57 6.173 7.97 14.67 21.49 1.88.037 5.017 8.725 11.817 18.552-.578 6.315-7.967 12.179-15.075 15.858-20.551 1.394-2.075 4.893-5.297 8.173-3.516 6.229 3.383-.863 11.197-.863 11.197-10.631 9.912-12.191 10.537-6.126 14.807 3.436 2.42 9.613 9.016 9.61 14.936-.002 4.596-5.229 15.979-7.471 11.587-1.763-3.452.19-12.747 3.963-17.308 3.745-4.527 10.821-6.461 14.406-10.917 6.009 8.866 14.677 9.533 22.55 1.88 5.454-5.303 8.597-12.961 16.12-13.643-2.083 6.125-4.341 12.074-5.675 18.074l7.349-.58c13.347-32.997 24.466-29.477 24.844-28.852 2.034 1.526-16.922 27.762-3.485 29.888 9.05 1.432 14.653-4.9 17.877-9.9 4.18-6.48 6.28-14.17 4.165-11.947-1.894 1.992-5.084 7.837-9.53 12.53-1.906 2.014-10.388 7.963-8.3.547 1.545-5.48 4.35-9.044 7.688-18.52 5.045-14.326-14.715-10.929-23.05-1.044l3.302-7.878h-8.425s-3.555 8.42-6.094 11.662c-3.415 4.358-7.069 3.643-6.95 1.836.3-4.573-1.387-8.887-1.387-8.887-3.547-7.685-13.817-6.696-18.926-3.207-3.792 2.589-7.813 6.562-11.29 16.758-.77 2.259-2.26 5.763-7.296 10.134-4.376 3.799-7.923 3.694-10.823 6.82-3.612 3.892-5.98 8.974-7.462 14.073-1.552 5.337-.728 14.146 4.473 15.462 7.004 1.771 13.78-4.841 15.197-15.452 1.095-8.199-5.72-19.826-11.455-22.012 8.972-7.457 18.244-17.033 10.078-26.077-4.295-4.757-13.868-4.568-19.815 3.271-3.023 3.984-5.323 8.531-8.855 12.977-3.605 4.538-13.476 17.664-11.705 10.877 1.425-5.458 5.979-18.984 9.312-28.65l-6.845.01-2.467 4.018c-9.534-15.766-29.381 7.155-30.416 18.452 0 0-10.876 11.32-13.217 7.955-1.793-2.576 4.479-15.363 5.882-22.465 1.32-6.68-5.585-4.876-8.973-6.801-2.135-1.213 1.25-7.022-1.722-8.187-2.874-1.128-10.44 5.65-4.831 11.833-2.784 3.386-4.419 9.866-11.887 10.335.4-11.578-5.427-15.974-10.508-16.238m.492 4.94c5.409 3.021-2.863 8.823 2.234 12.75-1.17 3.471-1.491 10.986-11.761 15.35-2.852 1.213-6.518-1.265-6.566-6.604-.046-5.086 4.106-23.877 16.055-21.563m63.756-.336s3.778-2.302 7.247 2.18c4.29 5.542-2.744 16.625-5.983 20.006-3.012 3.144-14.38 9.4-12.442-1.329 2.408-13.33 8.152-19.102 11.178-20.857m74.237 1.898c10.312-5.94 9.048 7.773 7.562 7.994-1.712.254-1.224 2.6.386 3.944 2.82 2.355-4.657 12.348-9.314 14.157-2.09.812-5.628-.644-6.265-2.44-2.127-5.99.754-18.686 7.631-23.655m102.446-.648s6.918-4.917 8.469 4.368c1.268 7.594-10.47 23.17-16.093 21.753-3.276-.826-3.26-4.785-2.264-10.764 1.55-9.301 9.888-15.357 9.888-15.357m73.103 4.11c2.623-3.547 8.367-5.896 10.433-3.835 6.918 6.902-4.2 27.313-13.594 25.975-3.133-.447-3.348-5.845-2.953-8.967.385-3.048 3.568-9.777 6.114-13.173m36.676 9.344c.449-3.278 1.703-5.73 3.511-8.021 2.224-2.819 5.175-5.395 8.593-6.496 1.308-.422 6.156-.517 5.694 3.795-.494 4.61-8.358 7.984-9.872 8.55-2.278.851-5.481 2.12-7.944 2.537m182.298-14.454c9.117 3.275-.573 10.208 3.904 12.637 2.368 1.284-7.776 16.402-14.381 14.631-4.263-1.142-4.424-8.547-3.313-12.819 1.675-6.443 6.264-15.99 13.782-14.452m-217.272 38.092s-2.232 8.411-4.709 11.875c-2.863 4.005-9.112 8.197-12.26 5.089-2.735-2.699 2.525-9.351 4.277-10.701 5.445-4.196 7.982-3.592 12.692-6.263" style="display:inline;fill:#c42525;fill-opacity:1;stroke:none;stroke-width:.1;stroke-dasharray:none;paint-order:markers stroke fill"/></g><script id="mesh_polyfill" type="text/javascript">!function(){const t=&quot;http://www.w3.org/2000/svg&quot;,e=&quot;http://www.w3.org/1999/xlink&quot;,s=&quot;http://www.w3.org/1999/xhtml&quot;,r=2;if(document.createElementNS(t,&quot;meshgradient&quot;).x)return;const n=(t,e,s,r)=&gt;{let n=new x(.5*(e.x+s.x),.5*(e.y+s.y)),o=new x(.5*(t.x+e.x),.5*(t.y+e.y)),i=new x(.5*(s.x+r.x),.5*(s.y+r.y)),a=new x(.5*(n.x+o.x),.5*(n.y+o.y)),h=new x(.5*(n.x+i.x),.5*(n.y+i.y)),l=new x(.5*(a.x+h.x),.5*(a.y+h.y));return[[t,o,a,l],[l,h,i,r]]},o=t=&gt;{let e=t[0].distSquared(t[1]),s=t[2].distSquared(t[3]),r=.25*t[0].distSquared(t[2]),n=.25*t[1].distSquared(t[3]),o=e&gt;s?e:s,i=r&gt;n?r:n;return 18*(o&gt;i?o:i)},i=(t,e)=&gt;Math.sqrt(t.distSquared(e)),a=(t,e)=&gt;t.scale(2/3).add(e.scale(1/3)),h=t=&gt;{let e,s,r,n,o,i,a,h=new g;return t.match(/(\w+\(\s*[^)]+\))+/g).forEach(t=&gt;{let l=t.match(/[\w.-]+/g),d=l.shift();switch(d){case&quot;translate&quot;:2===l.length?e=new g(1,0,0,1,l[0],l[1]):(console.error(&quot;mesh.js: translate does not have 2 arguments!&quot;),e=new g(1,0,0,1,0,0)),h=h.append(e);break;case&quot;scale&quot;:1===l.length?s=new g(l[0],0,0,l[0],0,0):2===l.length?s=new g(l[0],0,0,l[1],0,0):(console.error(&quot;mesh.js: scale does not have 1 or 2 arguments!&quot;),s=new g(1,0,0,1,0,0)),h=h.append(s);break;case&quot;rotate&quot;:if(3===l.length&amp;&amp;(e=new g(1,0,0,1,l[1],l[2]),h=h.append(e)),l[0]){r=l[0]*Math.PI/180;let t=Math.cos(r),e=Math.sin(r);Math.abs(t)&lt;1e-16&amp;&amp;(t=0),Math.abs(e)&lt;1e-16&amp;&amp;(e=0),a=new g(t,e,-e,t,0,0),h=h.append(a)}else console.error(&quot;math.js: No argument to rotate transform!&quot;);3===l.length&amp;&amp;(e=new g(1,0,0,1,-l[1],-l[2]),h=h.append(e));break;case&quot;skewX&quot;:l[0]?(r=l[0]*Math.PI/180,n=Math.tan(r),o=new g(1,0,n,1,0,0),h=h.append(o)):console.error(&quot;math.js: No argument to skewX transform!&quot;);break;case&quot;skewY&quot;:l[0]?(r=l[0]*Math.PI/180,n=Math.tan(r),i=new g(1,n,0,1,0,0),h=h.append(i)):console.error(&quot;math.js: No argument to skewY transform!&quot;);break;case&quot;matrix&quot;:6===l.length?h=h.append(new g(...l)):console.error(&quot;math.js: Incorrect number of arguments for matrix!&quot;);break;default:console.error(&quot;mesh.js: Unhandled transform type: &quot;+d)}}),h},l=t=&gt;{let e=[],s=t.split(/[ ,]+/);for(let t=0,r=s.length-1;t&lt;r;t+=2)e.push(new x(parseFloat(s[t]),parseFloat(s[t+1])));return e},d=(t,e)=&gt;{for(let s in e)t.setAttribute(s,e[s])},c=(t,e,s,r,n)=&gt;{let o,i,a=[0,0,0,0];for(let h=0;h&lt;3;++h)e[h]&lt;t[h]&amp;&amp;e[h]&lt;s[h]||t[h]&lt;e[h]&amp;&amp;s[h]&lt;e[h]?a[h]=0:(a[h]=.5*((e[h]-t[h])/r+(s[h]-e[h])/n),o=Math.abs(3*(e[h]-t[h])/r),i=Math.abs(3*(s[h]-e[h])/n),a[h]&gt;o?a[h]=o:a[h]&gt;i&amp;&amp;(a[h]=i));return a},u=[[1,0,0,0,0,0,0,0,0,0,0,0,0,0,0,0],[0,0,0,0,1,0,0,0,0,0,0,0,0,0,0,0],[-3,3,0,0,-2,-1,0,0,0,0,0,0,0,0,0,0],[2,-2,0,0,1,1,0,0,0,0,0,0,0,0,0,0],[0,0,0,0,0,0,0,0,1,0,0,0,0,0,0,0],[0,0,0,0,0,0,0,0,0,0,0,0,1,0,0,0],[0,0,0,0,0,0,0,0,-3,3,0,0,-2,-1,0,0],[0,0,0,0,0,0,0,0,2,-2,0,0,1,1,0,0],[-3,0,3,0,0,0,0,0,-2,0,-1,0,0,0,0,0],[0,0,0,0,-3,0,3,0,0,0,0,0,-2,0,-1,0],[9,-9,-9,9,6,3,-6,-3,6,-6,3,-3,4,2,2,1],[-6,6,6,-6,-3,-3,3,3,-4,4,-2,2,-2,-2,-1,-1],[2,0,-2,0,0,0,0,0,1,0,1,0,0,0,0,0],[0,0,0,0,2,0,-2,0,0,0,0,0,1,0,1,0],[-6,6,6,-6,-4,-2,4,2,-3,3,-3,3,-2,-1,-2,-1],[4,-4,-4,4,2,2,-2,-2,2,-2,2,-2,1,1,1,1]],f=t=&gt;{let e=[];for(let s=0;s&lt;16;++s){e[s]=0;for(let r=0;r&lt;16;++r)e[s]+=u[s][r]*t[r]}return e},p=(t,e,s)=&gt;{const r=e*e,n=s*s,o=e*e*e,i=s*s*s;return t[0]+t[1]*e+t[2]*r+t[3]*o+t[4]*s+t[5]*s*e+t[6]*s*r+t[7]*s*o+t[8]*n+t[9]*n*e+t[10]*n*r+t[11]*n*o+t[12]*i+t[13]*i*e+t[14]*i*r+t[15]*i*o},y=t=&gt;{let e=[],s=[],r=[];for(let s=0;s&lt;4;++s)e[s]=[],e[s][0]=n(t[0][s],t[1][s],t[2][s],t[3][s]),e[s][1]=[],e[s][1].push(...n(...e[s][0][0])),e[s][1].push(...n(...e[s][0][1])),e[s][2]=[],e[s][2].push(...n(...e[s][1][0])),e[s][2].push(...n(...e[s][1][1])),e[s][2].push(...n(...e[s][1][2])),e[s][2].push(...n(...e[s][1][3]));for(let t=0;t&lt;8;++t){s[t]=[];for(let r=0;r&lt;4;++r)s[t][r]=[],s[t][r][0]=n(e[0][2][t][r],e[1][2][t][r],e[2][2][t][r],e[3][2][t][r]),s[t][r][1]=[],s[t][r][1].push(...n(...s[t][r][0][0])),s[t][r][1].push(...n(...s[t][r][0][1])),s[t][r][2]=[],s[t][r][2].push(...n(...s[t][r][1][0])),s[t][r][2].push(...n(...s[t][r][1][1])),s[t][r][2].push(...n(...s[t][r][1][2])),s[t][r][2].push(...n(...s[t][r][1][3]))}for(let t=0;t&lt;8;++t){r[t]=[];for(let e=0;e&lt;8;++e)r[t][e]=[],r[t][e][0]=s[t][0][2][e],r[t][e][1]=s[t][1][2][e],r[t][e][2]=s[t][2][2][e],r[t][e][3]=s[t][3][2][e]}return r};class x{constructor(t,e){this.x=t||0,this.y=e||0}toString(){return`(x=${this.x}, y=${this.y})`}clone(){return new x(this.x,this.y)}add(t){return new x(this.x+t.x,this.y+t.y)}scale(t){return void 0===t.x?new x(this.x*t,this.y*t):new x(this.x*t.x,this.y*t.y)}distSquared(t){let e=this.x-t.x,s=this.y-t.y;return e*e+s*s}transform(t){let e=this.x*t.a+this.y*t.c+t.e,s=this.x*t.b+this.y*t.d+t.f;return new x(e,s)}}class g{constructor(t,e,s,r,n,o){void 0===t?(this.a=1,this.b=0,this.c=0,this.d=1,this.e=0,this.f=0):(this.a=t,this.b=e,this.c=s,this.d=r,this.e=n,this.f=o)}toString(){return`affine: ${this.a} ${this.c} ${this.e} \n       ${this.b} ${this.d} ${this.f}`}append(t){t instanceof g||console.error(&quot;mesh.js: argument to Affine.append is not affine!&quot;);let e=this.a*t.a+this.c*t.b,s=this.b*t.a+this.d*t.b,r=this.a*t.c+this.c*t.d,n=this.b*t.c+this.d*t.d,o=this.a*t.e+this.c*t.f+this.e,i=this.b*t.e+this.d*t.f+this.f;return new g(e,s,r,n,o,i)}}class w{constructor(t,e){this.nodes=t,this.colors=e}paintCurve(t,e){if(o(this.nodes)&gt;r){const s=n(...this.nodes);let r=[[],[]],o=[[],[]];for(let t=0;t&lt;4;++t)r[0][t]=this.colors[0][t],r[1][t]=(this.colors[0][t]+this.colors[1][t])/2,o[0][t]=r[1][t],o[1][t]=this.colors[1][t];let i=new w(s[0],r),a=new w(s[1],o);i.paintCurve(t,e),a.paintCurve(t,e)}else{let s=Math.round(this.nodes[0].x);if(s&gt;=0&amp;&amp;s&lt;e){let r=4*(~~this.nodes[0].y*e+s);t[r]=Math.round(this.colors[0][0]),t[r+1]=Math.round(this.colors[0][1]),t[r+2]=Math.round(this.colors[0][2]),t[r+3]=Math.round(this.colors[0][3])}}}}class m{constructor(t,e){this.nodes=t,this.colors=e}split(){let t=[[],[],[],[]],e=[[],[],[],[]],s=[[[],[]],[[],[]]],r=[[[],[]],[[],[]]];for(let s=0;s&lt;4;++s){const r=n(this.nodes[0][s],this.nodes[1][s],this.nodes[2][s],this.nodes[3][s]);t[0][s]=r[0][0],t[1][s]=r[0][1],t[2][s]=r[0][2],t[3][s]=r[0][3],e[0][s]=r[1][0],e[1][s]=r[1][1],e[2][s]=r[1][2],e[3][s]=r[1][3]}for(let t=0;t&lt;4;++t)s[0][0][t]=this.colors[0][0][t],s[0][1][t]=this.colors[0][1][t],s[1][0][t]=(this.colors[0][0][t]+this.colors[1][0][t])/2,s[1][1][t]=(this.colors[0][1][t]+this.colors[1][1][t])/2,r[0][0][t]=s[1][0][t],r[0][1][t]=s[1][1][t],r[1][0][t]=this.colors[1][0][t],r[1][1][t]=this.colors[1][1][t];return[new m(t,s),new m(e,r)]}paint(t,e){let s,n=!1;for(let t=0;t&lt;4;++t)if((s=o([this.nodes[0][t],this.nodes[1][t],this.nodes[2][t],this.nodes[3][t]]))&gt;r){n=!0;break}if(n){let s=this.split();s[0].paint(t,e),s[1].paint(t,e)}else{new w([...this.nodes[0]],[...this.colors[0]]).paintCurve(t,e)}}}class b{constructor(t){this.readMesh(t),this.type=t.getAttribute(&quot;type&quot;)||&quot;bilinear&quot;}readMesh(t){let e=[[]],s=[[]],r=Number(t.getAttribute(&quot;x&quot;)),n=Number(t.getAttribute(&quot;y&quot;));e[0][0]=new x(r,n);let o=t.children;for(let t=0,r=o.length;t&lt;r;++t){e[3*t+1]=[],e[3*t+2]=[],e[3*t+3]=[],s[t+1]=[];let r=o[t].children;for(let n=0,o=r.length;n&lt;o;++n){let o=r[n].children;for(let r=0,i=o.length;r&lt;i;++r){let i=r;0!==t&amp;&amp;++i;let h,d=o[r].getAttribute(&quot;path&quot;),c=&quot;l&quot;;null!=d&amp;&amp;(c=(h=d.match(/\s*([lLcC])\s*(.*)/))[1]);let u=l(h[2]);switch(c){case&quot;l&quot;:0===i?(e[3*t][3*n+3]=u[0].add(e[3*t][3*n]),e[3*t][3*n+1]=a(e[3*t][3*n],e[3*t][3*n+3]),e[3*t][3*n+2]=a(e[3*t][3*n+3],e[3*t][3*n])):1===i?(e[3*t+3][3*n+3]=u[0].add(e[3*t][3*n+3]),e[3*t+1][3*n+3]=a(e[3*t][3*n+3],e[3*t+3][3*n+3]),e[3*t+2][3*n+3]=a(e[3*t+3][3*n+3],e[3*t][3*n+3])):2===i?(0===n&amp;&amp;(e[3*t+3][3*n+0]=u[0].add(e[3*t+3][3*n+3])),e[3*t+3][3*n+1]=a(e[3*t+3][3*n],e[3*t+3][3*n+3]),e[3*t+3][3*n+2]=a(e[3*t+3][3*n+3],e[3*t+3][3*n])):(e[3*t+1][3*n]=a(e[3*t][3*n],e[3*t+3][3*n]),e[3*t+2][3*n]=a(e[3*t+3][3*n],e[3*t][3*n]));break;case&quot;L&quot;:0===i?(e[3*t][3*n+3]=u[0],e[3*t][3*n+1]=a(e[3*t][3*n],e[3*t][3*n+3]),e[3*t][3*n+2]=a(e[3*t][3*n+3],e[3*t][3*n])):1===i?(e[3*t+3][3*n+3]=u[0],e[3*t+1][3*n+3]=a(e[3*t][3*n+3],e[3*t+3][3*n+3]),e[3*t+2][3*n+3]=a(e[3*t+3][3*n+3],e[3*t][3*n+3])):2===i?(0===n&amp;&amp;(e[3*t+3][3*n+0]=u[0]),e[3*t+3][3*n+1]=a(e[3*t+3][3*n],e[3*t+3][3*n+3]),e[3*t+3][3*n+2]=a(e[3*t+3][3*n+3],e[3*t+3][3*n])):(e[3*t+1][3*n]=a(e[3*t][3*n],e[3*t+3][3*n]),e[3*t+2][3*n]=a(e[3*t+3][3*n],e[3*t][3*n]));break;case&quot;c&quot;:0===i?(e[3*t][3*n+1]=u[0].add(e[3*t][3*n]),e[3*t][3*n+2]=u[1].add(e[3*t][3*n]),e[3*t][3*n+3]=u[2].add(e[3*t][3*n])):1===i?(e[3*t+1][3*n+3]=u[0].add(e[3*t][3*n+3]),e[3*t+2][3*n+3]=u[1].add(e[3*t][3*n+3]),e[3*t+3][3*n+3]=u[2].add(e[3*t][3*n+3])):2===i?(e[3*t+3][3*n+2]=u[0].add(e[3*t+3][3*n+3]),e[3*t+3][3*n+1]=u[1].add(e[3*t+3][3*n+3]),0===n&amp;&amp;(e[3*t+3][3*n+0]=u[2].add(e[3*t+3][3*n+3]))):(e[3*t+2][3*n]=u[0].add(e[3*t+3][3*n]),e[3*t+1][3*n]=u[1].add(e[3*t+3][3*n]));break;case&quot;C&quot;:0===i?(e[3*t][3*n+1]=u[0],e[3*t][3*n+2]=u[1],e[3*t][3*n+3]=u[2]):1===i?(e[3*t+1][3*n+3]=u[0],e[3*t+2][3*n+3]=u[1],e[3*t+3][3*n+3]=u[2]):2===i?(e[3*t+3][3*n+2]=u[0],e[3*t+3][3*n+1]=u[1],0===n&amp;&amp;(e[3*t+3][3*n+0]=u[2])):(e[3*t+2][3*n]=u[0],e[3*t+1][3*n]=u[1]);break;default:console.error(&quot;mesh.js: &quot;+c+&quot; invalid path type.&quot;)}if(0===t&amp;&amp;0===n||r&gt;0){let e=window.getComputedStyle(o[r]).stopColor.match(/^rgb\s*\(\s*(\d+)\s*,\s*(\d+)\s*,\s*(\d+)\s*\)$/i),a=window.getComputedStyle(o[r]).stopOpacity,h=255;a&amp;&amp;(h=Math.floor(255*a)),e&amp;&amp;(0===i?(s[t][n]=[],s[t][n][0]=Math.floor(e[1]),s[t][n][1]=Math.floor(e[2]),s[t][n][2]=Math.floor(e[3]),s[t][n][3]=h):1===i?(s[t][n+1]=[],s[t][n+1][0]=Math.floor(e[1]),s[t][n+1][1]=Math.floor(e[2]),s[t][n+1][2]=Math.floor(e[3]),s[t][n+1][3]=h):2===i?(s[t+1][n+1]=[],s[t+1][n+1][0]=Math.floor(e[1]),s[t+1][n+1][1]=Math.floor(e[2]),s[t+1][n+1][2]=Math.floor(e[3]),s[t+1][n+1][3]=h):3===i&amp;&amp;(s[t+1][n]=[],s[t+1][n][0]=Math.floor(e[1]),s[t+1][n][1]=Math.floor(e[2]),s[t+1][n][2]=Math.floor(e[3]),s[t+1][n][3]=h))}}e[3*t+1][3*n+1]=new x,e[3*t+1][3*n+2]=new x,e[3*t+2][3*n+1]=new x,e[3*t+2][3*n+2]=new x,e[3*t+1][3*n+1].x=(-4*e[3*t][3*n].x+6*(e[3*t][3*n+1].x+e[3*t+1][3*n].x)+-2*(e[3*t][3*n+3].x+e[3*t+3][3*n].x)+3*(e[3*t+3][3*n+1].x+e[3*t+1][3*n+3].x)+-1*e[3*t+3][3*n+3].x)/9,e[3*t+1][3*n+2].x=(-4*e[3*t][3*n+3].x+6*(e[3*t][3*n+2].x+e[3*t+1][3*n+3].x)+-2*(e[3*t][3*n].x+e[3*t+3][3*n+3].x)+3*(e[3*t+3][3*n+2].x+e[3*t+1][3*n].x)+-1*e[3*t+3][3*n].x)/9,e[3*t+2][3*n+1].x=(-4*e[3*t+3][3*n].x+6*(e[3*t+3][3*n+1].x+e[3*t+2][3*n].x)+-2*(e[3*t+3][3*n+3].x+e[3*t][3*n].x)+3*(e[3*t][3*n+1].x+e[3*t+2][3*n+3].x)+-1*e[3*t][3*n+3].x)/9,e[3*t+2][3*n+2].x=(-4*e[3*t+3][3*n+3].x+6*(e[3*t+3][3*n+2].x+e[3*t+2][3*n+3].x)+-2*(e[3*t+3][3*n].x+e[3*t][3*n+3].x)+3*(e[3*t][3*n+2].x+e[3*t+2][3*n].x)+-1*e[3*t][3*n].x)/9,e[3*t+1][3*n+1].y=(-4*e[3*t][3*n].y+6*(e[3*t][3*n+1].y+e[3*t+1][3*n].y)+-2*(e[3*t][3*n+3].y+e[3*t+3][3*n].y)+3*(e[3*t+3][3*n+1].y+e[3*t+1][3*n+3].y)+-1*e[3*t+3][3*n+3].y)/9,e[3*t+1][3*n+2].y=(-4*e[3*t][3*n+3].y+6*(e[3*t][3*n+2].y+e[3*t+1][3*n+3].y)+-2*(e[3*t][3*n].y+e[3*t+3][3*n+3].y)+3*(e[3*t+3][3*n+2].y+e[3*t+1][3*n].y)+-1*e[3*t+3][3*n].y)/9,e[3*t+2][3*n+1].y=(-4*e[3*t+3][3*n].y+6*(e[3*t+3][3*n+1].y+e[3*t+2][3*n].y)+-2*(e[3*t+3][3*n+3].y+e[3*t][3*n].y)+3*(e[3*t][3*n+1].y+e[3*t+2][3*n+3].y)+-1*e[3*t][3*n+3].y)/9,e[3*t+2][3*n+2].y=(-4*e[3*t+3][3*n+3].y+6*(e[3*t+3][3*n+2].y+e[3*t+2][3*n+3].y)+-2*(e[3*t+3][3*n].y+e[3*t][3*n+3].y)+3*(e[3*t][3*n+2].y+e[3*t+2][3*n].y)+-1*e[3*t][3*n].y)/9}}this.nodes=e,this.colors=s}paintMesh(t,e){let s=(this.nodes.length-1)/3,r=(this.nodes[0].length-1)/3;if(&quot;bilinear&quot;===this.type||s&lt;2||r&lt;2){let n;for(let o=0;o&lt;s;++o)for(let s=0;s&lt;r;++s){let r=[];for(let t=3*o,e=3*o+4;t&lt;e;++t)r.push(this.nodes[t].slice(3*s,3*s+4));let i=[];i.push(this.colors[o].slice(s,s+2)),i.push(this.colors[o+1].slice(s,s+2)),(n=new m(r,i)).paint(t,e)}}else{let n,o,a,h,l,d,u;const x=s,g=r;s++,r++;let w=new Array(s);for(let t=0;t&lt;s;++t){w[t]=new Array(r);for(let e=0;e&lt;r;++e)w[t][e]=[],w[t][e][0]=this.nodes[3*t][3*e],w[t][e][1]=this.colors[t][e]}for(let t=0;t&lt;s;++t)for(let e=0;e&lt;r;++e)0!==t&amp;&amp;t!==x&amp;&amp;(n=i(w[t-1][e][0],w[t][e][0]),o=i(w[t+1][e][0],w[t][e][0]),w[t][e][2]=c(w[t-1][e][1],w[t][e][1],w[t+1][e][1],n,o)),0!==e&amp;&amp;e!==g&amp;&amp;(n=i(w[t][e-1][0],w[t][e][0]),o=i(w[t][e+1][0],w[t][e][0]),w[t][e][3]=c(w[t][e-1][1],w[t][e][1],w[t][e+1][1],n,o));for(let t=0;t&lt;r;++t){w[0][t][2]=[],w[x][t][2]=[];for(let e=0;e&lt;4;++e)n=i(w[1][t][0],w[0][t][0]),o=i(w[x][t][0],w[x-1][t][0]),w[0][t][2][e]=n&gt;0?2*(w[1][t][1][e]-w[0][t][1][e])/n-w[1][t][2][e]:0,w[x][t][2][e]=o&gt;0?2*(w[x][t][1][e]-w[x-1][t][1][e])/o-w[x-1][t][2][e]:0}for(let t=0;t&lt;s;++t){w[t][0][3]=[],w[t][g][3]=[];for(let e=0;e&lt;4;++e)n=i(w[t][1][0],w[t][0][0]),o=i(w[t][g][0],w[t][g-1][0]),w[t][0][3][e]=n&gt;0?2*(w[t][1][1][e]-w[t][0][1][e])/n-w[t][1][3][e]:0,w[t][g][3][e]=o&gt;0?2*(w[t][g][1][e]-w[t][g-1][1][e])/o-w[t][g-1][3][e]:0}for(let s=0;s&lt;x;++s)for(let r=0;r&lt;g;++r){let n=i(w[s][r][0],w[s+1][r][0]),o=i(w[s][r+1][0],w[s+1][r+1][0]),c=i(w[s][r][0],w[s][r+1][0]),x=i(w[s+1][r][0],w[s+1][r+1][0]),g=[[],[],[],[]];for(let t=0;t&lt;4;++t){(d=[])[0]=w[s][r][1][t],d[1]=w[s+1][r][1][t],d[2]=w[s][r+1][1][t],d[3]=w[s+1][r+1][1][t],d[4]=w[s][r][2][t]*n,d[5]=w[s+1][r][2][t]*n,d[6]=w[s][r+1][2][t]*o,d[7]=w[s+1][r+1][2][t]*o,d[8]=w[s][r][3][t]*c,d[9]=w[s+1][r][3][t]*x,d[10]=w[s][r+1][3][t]*c,d[11]=w[s+1][r+1][3][t]*x,d[12]=0,d[13]=0,d[14]=0,d[15]=0,u=f(d);for(let e=0;e&lt;9;++e){g[t][e]=[];for(let s=0;s&lt;9;++s)g[t][e][s]=p(u,e/8,s/8),g[t][e][s]&gt;255?g[t][e][s]=255:g[t][e][s]&lt;0&amp;&amp;(g[t][e][s]=0)}}h=[];for(let t=3*s,e=3*s+4;t&lt;e;++t)h.push(this.nodes[t].slice(3*r,3*r+4));l=y(h);for(let s=0;s&lt;8;++s)for(let r=0;r&lt;8;++r)(a=new m(l[s][r],[[[g[0][s][r],g[1][s][r],g[2][s][r],g[3][s][r]],[g[0][s][r+1],g[1][s][r+1],g[2][s][r+1],g[3][s][r+1]]],[[g[0][s+1][r],g[1][s+1][r],g[2][s+1][r],g[3][s+1][r]],[g[0][s+1][r+1],g[1][s+1][r+1],g[2][s+1][r+1],g[3][s+1][r+1]]]])).paint(t,e)}}}transform(t){if(t instanceof x)for(let e=0,s=this.nodes.length;e&lt;s;++e)for(let s=0,r=this.nodes[0].length;s&lt;r;++s)this.nodes[e][s]=this.nodes[e][s].add(t);else if(t instanceof g)for(let e=0,s=this.nodes.length;e&lt;s;++e)for(let s=0,r=this.nodes[0].length;s&lt;r;++s)this.nodes[e][s]=this.nodes[e][s].transform(t)}scale(t){for(let e=0,s=this.nodes.length;e&lt;s;++e)for(let s=0,r=this.nodes[0].length;s&lt;r;++s)this.nodes[e][s]=this.nodes[e][s].scale(t)}}document.querySelectorAll(&quot;rect,circle,ellipse,path,text&quot;).forEach((r,n)=&gt;{let o=r.getAttribute(&quot;id&quot;);o||(o=&quot;patchjs_shape&quot;+n,r.setAttribute(&quot;id&quot;,o));const i=r.style.fill.match(/^url\(\s*&quot;?\s*#([^\s&quot;]+)&quot;?\s*\)/),a=r.style.stroke.match(/^url\(\s*&quot;?\s*#([^\s&quot;]+)&quot;?\s*\)/);if(i&amp;&amp;i[1]){const a=document.getElementById(i[1]);if(a&amp;&amp;&quot;meshgradient&quot;===a.nodeName){const i=r.getBBox();let l=document.createElementNS(s,&quot;canvas&quot;);d(l,{width:i.width,height:i.height});const c=l.getContext(&quot;2d&quot;);let u=c.createImageData(i.width,i.height);const f=new b(a);&quot;objectBoundingBox&quot;===a.getAttribute(&quot;gradientUnits&quot;)&amp;&amp;f.scale(new x(i.width,i.height));const p=a.getAttribute(&quot;gradientTransform&quot;);null!=p&amp;&amp;f.transform(h(p)),&quot;userSpaceOnUse&quot;===a.getAttribute(&quot;gradientUnits&quot;)&amp;&amp;f.transform(new x(-i.x,-i.y)),f.paintMesh(u.data,l.width),c.putImageData(u,0,0);const y=document.createElementNS(t,&quot;image&quot;);d(y,{width:i.width,height:i.height,x:i.x,y:i.y});let g=l.toDataURL();y.setAttributeNS(e,&quot;xlink:href&quot;,g),r.parentNode.insertBefore(y,r),r.style.fill=&quot;none&quot;;const w=document.createElementNS(t,&quot;use&quot;);w.setAttributeNS(e,&quot;xlink:href&quot;,&quot;#&quot;+o);const m=&quot;patchjs_clip&quot;+n,M=document.createElementNS(t,&quot;clipPath&quot;);M.setAttribute(&quot;id&quot;,m),M.appendChild(w),r.parentElement.insertBefore(M,r),y.setAttribute(&quot;clip-path&quot;,&quot;url(#&quot;+m+&quot;)&quot;),u=null,l=null,g=null}}if(a&amp;&amp;a[1]){const o=document.getElementById(a[1]);if(o&amp;&amp;&quot;meshgradient&quot;===o.nodeName){const i=parseFloat(r.style.strokeWidth.slice(0,-2))*(parseFloat(r.style.strokeMiterlimit)||parseFloat(r.getAttribute(&quot;stroke-miterlimit&quot;))||1),a=r.getBBox(),l=Math.trunc(a.width+i),c=Math.trunc(a.height+i),u=Math.trunc(a.x-i/2),f=Math.trunc(a.y-i/2);let p=document.createElementNS(s,&quot;canvas&quot;);d(p,{width:l,height:c});const y=p.getContext(&quot;2d&quot;);let g=y.createImageData(l,c);const w=new b(o);&quot;objectBoundingBox&quot;===o.getAttribute(&quot;gradientUnits&quot;)&amp;&amp;w.scale(new x(l,c));const m=o.getAttribute(&quot;gradientTransform&quot;);null!=m&amp;&amp;w.transform(h(m)),&quot;userSpaceOnUse&quot;===o.getAttribute(&quot;gradientUnits&quot;)&amp;&amp;w.transform(new x(-u,-f)),w.paintMesh(g.data,p.width),y.putImageData(g,0,0);const M=document.createElementNS(t,&quot;image&quot;);d(M,{width:l,height:c,x:0,y:0});let S=p.toDataURL();M.setAttributeNS(e,&quot;xlink:href&quot;,S);const k=&quot;pattern_clip&quot;+n,A=document.createElementNS(t,&quot;pattern&quot;);d(A,{id:k,patternUnits:&quot;userSpaceOnUse&quot;,width:l,height:c,x:u,y:f}),A.appendChild(M),o.parentNode.appendChild(A),r.style.stroke=&quot;url(#&quot;+k+&quot;)&quot;,g=null,p=null,S=null}}})}();</script></svg>